<?xml version="1.0" encoding="UTF-8" standalone="no"?>
<!-- Created with Inkscape (http://www.inkscape.org/) -->

<svg
   xmlns:dc="http://purl.org/dc/elements/1.1/"
   xmlns:cc="http://creativecommons.org/ns#"
   xmlns:rdf="http://www.w3.org/1999/02/22-rdf-syntax-ns#"
   xmlns:svg="http://www.w3.org/2000/svg"
   xmlns="http://www.w3.org/2000/svg"
   xmlns:sodipodi="http://sodipodi.sourceforge.net/DTD/sodipodi-0.dtd"
   xmlns:inkscape="http://www.inkscape.org/namespaces/inkscape"
   width="300"
   height="300"
   id="svg3000"
   version="1.1"
   inkscape:version="0.48.2 r9819"
   inkscape:export-filename="/Users/AJ/Desktop/epicloops/png/e_icon_300.png"
   inkscape:export-xdpi="90"
   inkscape:export-ydpi="90"
   sodipodi:docname="epicloops-ico-144.svg">
  <defs
     id="defs3002" />
  <sodipodi:namedview
     id="base"
     pagecolor="#ffffff"
     bordercolor="#666666"
     borderopacity="1.0"
     inkscape:pageopacity="0.0"
     inkscape:pageshadow="2"
     inkscape:zoom="1.64"
     inkscape:cx="70.015746"
     inkscape:cy="140.69938"
     inkscape:document-units="px"
     inkscape:current-layer="layer1"
     showgrid="false"
     inkscape:window-width="1440"
     inkscape:window-height="768"
     inkscape:window-x="0"
     inkscape:window-y="0"
     inkscape:window-maximized="1" />
  <metadata
     id="metadata3005">
    <rdf:RDF>
      <cc:Work
         rdf:about="">
        <dc:format>image/svg+xml</dc:format>
        <dc:type
           rdf:resource="http://purl.org/dc/dcmitype/StillImage" />
        <dc:title></dc:title>
      </cc:Work>
    </rdf:RDF>
  </metadata>
  <g
     inkscape:label="Layer 1"
     inkscape:groupmode="layer"
     id="layer1"
     transform="translate(0,-752.3622)">
    <path
       d="m 152.11039,758.64973 c -0.22857,0 -0.41073,-0.18427 -0.63762,-0.18427 -19.06782,-0.2218 -38.49194,3.2385 -57.208843,10.83015 -0.04731,0 -0.10867,0 -0.164978,0 -0.02367,0 -0.05607,0 -0.08688,0 -2.969587,1.21789 -5.832397,2.53543 -8.66414,3.93606 -1.980682,0.95955 -3.896629,1.98736 -5.836637,3.02818 -0.294957,0.18629 -0.615343,0.3158 -0.905705,0.48181 l 0.01611,0 c -22.4359,12.34018 -40.57049,29.85773 -53.276383,50.43299 l -19.6687334,0.25941 26.8808024,82.7922 c 14.901616,-21.164 35.594661,-53.93482 40.302475,-59.71107 7.538434,-10.97049 17.537011,-20.39434 29.634792,-27.41535 0,0 7.71175,-3.74255 11.80049,-5.40474 47.82876,-19.39288 102.58176,3.04047 122.29334,50.10328 19.70659,47.06831 -3.0972,100.95019 -50.9188,120.33502 -47.82714,19.3967 -102.57781,-3.03007 -122.297376,-50.10256 -1.723879,-4.10501 -3.0049,-8.27743 -4.08363,-12.4611 l -53.4187902,0 c 1.8125022,9.81521 4.7731872,21.73645 8.7919952,31.3375 30.717835,73.37496 116.050731,108.33856 190.601751,78.10476 74.55085,-30.2333 110.08534,-114.20816 79.36263,-187.56962 -22.87963,-54.64458 -76.05742,-87.92504 -132.50959,-88.89942"
       style="fill:#000000;fill-opacity:1;fill-rule:nonzero;stroke:none;display:inline"
       id="path3112"
       inkscape:connector-curvature="0"
       sodipodi:nodetypes="cccccccccccccccccccccscc" />
    <text
       xml:space="preserve"
       style="font-size:268.70040894px;font-style:italic;font-variant:normal;font-weight:800;font-stretch:normal;line-height:125%;letter-spacing:0px;word-spacing:0px;fill:#000000;fill-opacity:1;stroke:none;font-family:Centrale Sans Rounded;-inkscape-font-specification:Centrale Sans Rounded Ultra-Bold Italic"
       x="67.909386"
       y="971.18011"
       id="text3213"
       sodipodi:linespacing="125%"><tspan
         sodipodi:role="line"
         id="tspan3215"
         x="67.909386"
         y="971.18011">e</tspan></text>
  </g>
</svg>
