<?xml version="1.0" encoding="UTF-8" standalone="no"?>
<!-- Created with Inkscape (http://www.inkscape.org/) -->

<svg
   xmlns:dc="http://purl.org/dc/elements/1.1/"
   xmlns:cc="http://creativecommons.org/ns#"
   xmlns:rdf="http://www.w3.org/1999/02/22-rdf-syntax-ns#"
   xmlns:svg="http://www.w3.org/2000/svg"
   xmlns="http://www.w3.org/2000/svg"
   xmlns:sodipodi="http://sodipodi.sourceforge.net/DTD/sodipodi-0.dtd"
   xmlns:inkscape="http://www.inkscape.org/namespaces/inkscape"
   width="16"
   height="16"
   id="svg3000"
   version="1.1"
   inkscape:version="0.48.3.1 r9886"
   inkscape:export-filename="/home/ajw/Desktop/epicloops/media/ico/favicon.png"
   inkscape:export-xdpi="90"
   inkscape:export-ydpi="90"
   sodipodi:docname="epicloops-ico-16.eps">
  <defs
     id="defs3002" />
  <sodipodi:namedview
     id="base"
     pagecolor="#ffffff"
     bordercolor="#666666"
     borderopacity="1.0"
     inkscape:pageopacity="0.0"
     inkscape:pageshadow="2"
     inkscape:zoom="7.03"
     inkscape:cx="39.618777"
     inkscape:cy="25.891892"
     inkscape:document-units="px"
     inkscape:current-layer="layer1"
     showgrid="false"
     inkscape:window-width="1375"
     inkscape:window-height="876"
     inkscape:window-x="65"
     inkscape:window-y="24"
     inkscape:window-maximized="1" />
  <metadata
     id="metadata3005">
    <rdf:RDF>
      <cc:Work
         rdf:about="">
        <dc:format>image/svg+xml</dc:format>
        <dc:type
           rdf:resource="http://purl.org/dc/dcmitype/StillImage" />
        <dc:title></dc:title>
      </cc:Work>
    </rdf:RDF>
  </metadata>
  <g
     inkscape:label="Layer 1"
     inkscape:groupmode="layer"
     id="layer1"
     transform="translate(0,-1036.3622)">
    <path
       d="m 7.9536472,1036.6259 c -0.012386,0 -0.022257,-0.01 -0.034554,-0.01 -1.0333102,-0.012 -2.0859288,0.1755 -3.1002232,0.5869 -0.00255,0 -0.00589,0 -0.00894,0 -0.00128,0 -0.00304,0 -0.00471,0 -0.1609258,0.066 -0.3160653,0.1374 -0.4695213,0.2133 -0.1073359,0.052 -0.2111634,0.1077 -0.3162952,0.1641 -0.015981,0.01 -0.033346,0.017 -0.049081,0.026 l 8.654e-4,0 c -1.2158311,0.6687 -2.1985687,1.618 -2.887118,2.733 l -1.06587469,0.014 1.45670649,4.4866 c 0.8075383,-1.1469 1.9289221,-2.9228 2.1840446,-3.2358 0.4085177,-0.5945 0.9503539,-1.1052 1.6059488,-1.4857 0,0 0.4179107,-0.2028 0.6394845,-0.2929 2.5919043,-1.0509 5.5590424,0.1648 6.6272384,2.7152 1.067927,2.5507 -0.167842,5.4706 -2.7593569,6.5211 -2.5918168,1.0511 -5.5588285,-0.1642 -6.6274583,-2.7151 -0.093419,-0.2225 -0.1628392,-0.4486 -0.2212969,-0.6753 l -2.89483532,0 c 0.0982219,0.5319 0.25866542,1.1779 0.47644991,1.6982 1.66464031,3.9763 6.28894331,5.871 10.32896251,4.2326 4.04001,-1.6384 5.965671,-6.1891 4.300767,-10.1646 -1.239879,-2.9613 -4.121653,-4.7648 -7.1808709,-4.8176"
       style="fill:#000000;fill-opacity:1;fill-rule:nonzero;stroke:none;display:inline"
       id="path3112"
       inkscape:connector-curvature="0"
       sodipodi:nodetypes="cccccccccccccccccccccscc" />
    <text
       xml:space="preserve"
       style="font-size:14.56123256999999960px;font-style:italic;font-variant:normal;font-weight:800;font-stretch:normal;line-height:125%;letter-spacing:0px;word-spacing:0px;fill:#000000;fill-opacity:1;stroke:none;font-family:Centrale Sans Rounded;-inkscape-font-specification:Centrale Sans Rounded Ultra-Bold Italic"
       x="3.3906825"
       y="1048.1432"
       id="text3213"
       sodipodi:linespacing="125%"><tspan
         sodipodi:role="line"
         id="tspan3215"
         x="3.3906825"
         y="1048.1432">e</tspan></text>
  </g>
</svg>
