<?xml version="1.0" encoding="UTF-8" standalone="no"?>
<!-- Created with Inkscape (http://www.inkscape.org/) -->

<svg
   xmlns:dc="http://purl.org/dc/elements/1.1/"
   xmlns:cc="http://creativecommons.org/ns#"
   xmlns:rdf="http://www.w3.org/1999/02/22-rdf-syntax-ns#"
   xmlns:svg="http://www.w3.org/2000/svg"
   xmlns="http://www.w3.org/2000/svg"
   xmlns:sodipodi="http://sodipodi.sourceforge.net/DTD/sodipodi-0.dtd"
   xmlns:inkscape="http://www.inkscape.org/namespaces/inkscape"
   width="250"
   height="50"
   id="svg3169"
   version="1.1"
   inkscape:version="0.48.2 r9819"
   sodipodi:docname="epicloops-logo.svg"
   inkscape:export-filename="/Users/AJ/Projects/src/epicloops.com/png/logo-black-250x50.png"
   inkscape:export-xdpi="90"
   inkscape:export-ydpi="90">
  <defs
     id="defs3171" />
  <sodipodi:namedview
     id="base"
     pagecolor="#ffffff"
     bordercolor="#666666"
     borderopacity="1.0"
     inkscape:pageopacity="0"
     inkscape:pageshadow="2"
     inkscape:zoom="2.5501103"
     inkscape:cx="41.947782"
     inkscape:cy="31.861253"
     inkscape:document-units="px"
     inkscape:current-layer="layer1"
     showgrid="false"
     showguides="true"
     inkscape:guide-bbox="true"
     inkscape:window-width="1440"
     inkscape:window-height="768"
     inkscape:window-x="0"
     inkscape:window-y="0"
     inkscape:window-maximized="1" />
  <metadata
     id="metadata3174">
    <rdf:RDF>
      <cc:Work
         rdf:about="">
        <dc:format>image/svg+xml</dc:format>
        <dc:type
           rdf:resource="http://purl.org/dc/dcmitype/StillImage" />
        <dc:title></dc:title>
      </cc:Work>
    </rdf:RDF>
  </metadata>
  <g
     inkscape:groupmode="layer"
     id="layer2"
     inkscape:label="Background"
     transform="translate(0,-1002.3622)" />
  <g
     inkscape:label="Layer 1"
     inkscape:groupmode="layer"
     id="layer1"
     transform="translate(0,-1002.3622)">
    <path
       d="m 27.054355,1002.6033 c -0.03927,0 -0.07049,-0.026 -0.109477,-0.026 -3.272635,-0.036 -6.60643,0.5559 -9.818844,1.8585 -0.0087,0 -0.01864,0.026 -0.02819,0.026 -0.0039,0 -0.0087,0 -0.01514,0 -0.50967,0.2089 -1.001027,0.4353 -1.487046,0.6753 -0.339949,0.1676 -0.668779,0.3414 -1.001748,0.5201 -0.05058,0.026 -0.105568,0.054 -0.155457,0.08 l 0.0026,0 c -3.850704,2.1179 -6.9631752,5.1242 -9.1439063,8.6561 l -3.3757885,0.041 4.6136078,14.2096 c 2.5575868,-3.6327 6.109163,-9.2571 6.917177,-10.2485 1.293839,-1.8832 3.009901,-3.5001 5.086273,-4.7057 0,0 1.323583,-0.642 2.025342,-0.9269 8.208929,-3.3287 17.606274,0.5216 20.989397,8.599 3.382284,8.0783 -0.53157,17.3261 -8.739262,20.6534 -8.208664,3.3289 -17.60562,-0.5203 -20.990111,-8.5993 -0.295888,-0.7047 -0.515741,-1.4209 -0.700889,-2.139 l -9.1683467,-0.026 c 0.311076,1.6847 0.8192296,3.7304 1.5089813,5.3782 5.2721525,12.5937 19.9179804,18.5943 32.7132914,13.4054 12.795296,-5.1889 18.894148,-19.6014 13.621159,-32.1926 -3.92688,-9.379 -13.053874,-15.0911 -22.742855,-15.2579"
       style="fill:#1a1a1a;fill-opacity:1;fill-rule:nonzero;stroke:none;display:inline"
       id="path3112"
       inkscape:connector-curvature="0"
       sodipodi:nodetypes="cccccccccccccccccccccscc" />
    <text
       xml:space="preserve"
       style="font-size:46.11750793px;font-style:italic;font-variant:normal;font-weight:800;font-stretch:normal;line-height:125%;letter-spacing:0px;word-spacing:0px;fill:#1a1a1a;fill-opacity:1;stroke:none;font-family:Centrale Sans Rounded;-inkscape-font-specification:Centrale Sans Rounded Ultra-Bold Italic"
       x="52.247818"
       y="1039.5219"
       id="text3205"
       sodipodi:linespacing="125%"><tspan
         sodipodi:role="line"
         id="tspan3207"
         x="52.247818"
         y="1039.5219">picloops</tspan></text>
    <text
       xml:space="preserve"
       style="font-size:46.11750793px;font-style:italic;font-variant:normal;font-weight:800;font-stretch:normal;line-height:125%;letter-spacing:0px;word-spacing:0px;fill:#1a1a1a;fill-opacity:1;stroke:none;font-family:Centrale Sans Rounded;-inkscape-font-specification:Centrale Sans Rounded Ultra-Bold Italic"
       x="12.60277"
       y="1039.08"
       id="text3213"
       sodipodi:linespacing="125%"><tspan
         sodipodi:role="line"
         id="tspan3215"
         x="12.60277"
         y="1039.08">e</tspan></text>
  </g>
</svg>
